# Blender v2.79 (sub 0) OBJ File: ''
# www.blender.org
mtllib arm_basket.mtl
o Circle
v 0.000000 -0.331662 -0.129495
v -0.064747 -0.331662 -0.112146
v -0.112146 -0.331662 -0.064747
v -0.129495 -0.331662 0.000000
v -0.112146 -0.331662 0.064748
v -0.064747 -0.331662 0.112146
v -0.000000 -0.331662 0.129495
v 0.064747 -0.331662 0.112146
v 0.112146 -0.331662 0.064748
v 0.129495 -0.331662 0.000000
v 0.112146 -0.331662 -0.064747
v 0.064747 -0.331662 -0.112146
v 0.000000 -0.427608 -0.105985
v -0.052993 -0.427608 -0.091786
v -0.091786 -0.427608 -0.052993
v -0.105986 -0.427608 0.000000
v -0.091786 -0.427608 0.052993
v -0.052993 -0.427608 0.091786
v -0.000000 -0.427608 0.105986
v 0.052993 -0.427608 0.091786
v 0.091786 -0.427608 0.052993
v 0.105986 -0.427608 0.000000
v 0.091786 -0.427608 -0.052993
v 0.052993 -0.427608 -0.091786
v 0.000000 -0.450816 -0.042954
v -0.021477 -0.450816 -0.037199
v -0.037199 -0.450816 -0.021477
v -0.042954 -0.450816 0.000000
v -0.037199 -0.450816 0.021477
v -0.021477 -0.450816 0.037199
v 0.000000 -0.450816 0.042954
v 0.021477 -0.450816 0.037199
v 0.037199 -0.450816 0.021477
v 0.042954 -0.450816 0.000000
v 0.037199 -0.450816 -0.021477
v 0.021477 -0.450816 -0.037199
v 0.000000 -0.295727 -0.130930
v -0.077224 -0.298725 -0.089157
v -0.089158 -0.298725 -0.077224
v -0.130930 -0.295727 0.000000
v -0.113389 -0.295727 0.065465
v -0.038601 -0.298725 0.111457
v -0.022299 -0.298725 0.115825
v 0.065465 -0.295727 0.113389
v 0.113389 -0.295727 0.065465
v 0.115825 -0.298725 -0.022299
v 0.111457 -0.298725 -0.038600
v 0.065465 -0.295727 -0.113388
v 0.000000 -0.331959 -0.126543
v -0.063271 -0.331959 -0.109589
v -0.109589 -0.331959 -0.063271
v -0.126543 -0.331959 0.000000
v -0.109589 -0.331959 0.063271
v -0.063271 -0.331959 0.109589
v -0.000000 -0.331959 0.126543
v 0.063271 -0.331959 0.109589
v 0.109589 -0.331959 0.063272
v 0.126543 -0.331959 0.000000
v 0.109589 -0.331959 -0.063271
v 0.063271 -0.331959 -0.109589
v 0.000000 -0.426180 -0.103692
v -0.051846 -0.426180 -0.089800
v -0.089800 -0.426180 -0.051846
v -0.103692 -0.426180 0.000000
v -0.089800 -0.426180 0.051846
v -0.051846 -0.426180 0.089800
v -0.000000 -0.426180 0.103692
v 0.051846 -0.426180 0.089800
v 0.089800 -0.426180 0.051846
v 0.103692 -0.426180 0.000000
v 0.089800 -0.426180 -0.051846
v 0.051846 -0.426180 -0.089799
v 0.000000 -0.447929 -0.042273
v -0.021136 -0.447929 -0.036609
v -0.036609 -0.447929 -0.021136
v -0.042273 -0.447929 0.000000
v -0.036609 -0.447929 0.021137
v -0.021136 -0.447929 0.036609
v 0.000000 -0.447929 0.042273
v 0.021136 -0.447929 0.036609
v 0.036609 -0.447929 0.021137
v 0.042273 -0.447929 0.000000
v 0.036609 -0.447929 -0.021136
v 0.021136 -0.447929 -0.036609
v 0.000000 -0.296288 -0.127934
v -0.075617 -0.299120 -0.087277
v -0.087277 -0.299120 -0.075617
v -0.127934 -0.296288 0.000000
v -0.110794 -0.296288 0.063967
v -0.037776 -0.299120 0.109125
v -0.021848 -0.299120 0.113393
v 0.063967 -0.296288 0.110794
v 0.110794 -0.296288 0.063967
v 0.113393 -0.299120 -0.021847
v 0.109125 -0.299120 -0.037776
v 0.063967 -0.296288 -0.110794
v -0.017924 0.001510 -0.006790
v -0.006790 0.001510 -0.017924
v 0.003082 0.001510 0.018918
v -0.012128 0.001510 0.014843
v 0.014843 0.001510 -0.012128
v 0.018918 0.001510 0.003082
v -0.017322 0.001554 -0.006442
v -0.006442 0.001554 -0.017322
v 0.003082 0.001554 0.018222
v -0.011780 0.001554 0.014240
v 0.014240 0.001554 -0.011780
v 0.018222 0.001554 0.003082
v 0.000000 -0.380350 -0.123879
v -0.061939 -0.380350 -0.107282
v 0.061939 -0.380350 0.107282
v 0.107282 -0.380350 0.061940
v -0.107282 -0.380350 0.061940
v -0.061939 -0.380350 0.107282
v 0.061939 -0.380350 -0.107282
v -0.107282 -0.380350 -0.061939
v 0.123879 -0.380350 0.000000
v -0.000000 -0.380350 0.123879
v -0.123879 -0.380350 0.000000
v 0.107282 -0.380350 -0.061939
vn -0.4864 -0.2316 -0.8425
vn 0.0000 -0.2316 -0.9728
vn 0.0000 -0.6775 -0.7355
vn -0.3677 -0.6775 -0.6369
vn 0.8425 -0.2316 0.4864
vn 0.4864 -0.2316 0.8425
vn 0.3677 -0.6775 0.6369
vn 0.6369 -0.6775 0.3677
vn -0.4864 -0.2316 0.8425
vn -0.8425 -0.2316 0.4864
vn -0.6369 -0.6775 0.3677
vn -0.3677 -0.6775 0.6369
vn 0.4864 -0.2316 -0.8425
vn 0.3677 -0.6775 -0.6369
vn -0.8425 -0.2316 -0.4864
vn -0.6369 -0.6775 -0.3677
vn 0.9728 -0.2316 0.0000
vn 0.7355 -0.6775 0.0000
vn 0.0000 -0.2316 0.9728
vn 0.0000 -0.6775 0.7355
vn -0.9728 -0.2316 0.0000
vn -0.7355 -0.6775 0.0000
vn 0.8425 -0.2316 -0.4864
vn 0.6369 -0.6775 -0.3677
vn -0.1017 -0.9791 0.1762
vn 0.0000 -0.9791 0.2035
vn -0.1762 -0.9791 -0.1017
vn -0.2035 -0.9791 0.0000
vn 0.2035 -0.9791 0.0000
vn 0.1762 -0.9791 -0.1017
vn 0.1017 -0.9791 0.1762
vn -0.1762 -0.9791 0.1017
vn 0.1017 -0.9791 -0.1762
vn 0.0000 -0.9791 -0.2035
vn -0.1017 -0.9791 -0.1762
vn 0.1762 -0.9791 0.1017
vn -0.0323 -0.0110 -0.9994
vn -0.4979 0.0505 -0.8657
vn -0.3471 0.4831 -0.8038
vn -0.0492 0.7293 -0.6824
vn 0.4717 -0.0110 0.8816
vn 0.8816 -0.0110 0.4717
vn 0.6156 0.7293 0.2986
vn 0.2986 0.7293 0.6156
vn -0.8494 -0.0110 0.5277
vn -0.5007 0.0505 0.8641
vn -0.5225 0.4831 0.7025
vn -0.5664 0.7293 0.3838
vn 0.5277 -0.0110 -0.8494
vn 0.3838 0.7293 -0.5664
vn -0.8657 0.0505 -0.4979
vn -0.8038 0.4831 -0.3471
vn 0.9987 0.0505 0.0016
vn 0.8697 0.4831 0.1013
vn 0.0016 0.0505 0.9987
vn 0.1013 0.4831 0.8697
vn -0.9994 -0.0110 -0.0323
vn -0.6824 0.7293 -0.0492
vn 0.8641 0.0505 -0.5007
vn 0.7025 0.4831 -0.5225
vn 0.4984 0.0131 0.8668
vn 0.3870 0.6332 0.6703
vn 0.0000 0.6332 0.7740
vn 0.0326 0.0724 0.9968
vn -0.8796 0.0724 -0.4702
vn -0.6703 0.6332 -0.3870
vn -0.3870 0.6332 -0.6703
vn -0.4702 0.0724 -0.8796
vn 0.5014 0.0131 -0.8650
vn 0.3870 0.6332 -0.6703
vn 0.6703 0.6332 -0.3870
vn 0.8470 0.0724 -0.5266
vn -0.3870 0.6332 0.6703
vn -0.5266 0.0724 0.8470
vn 0.8668 0.0131 0.4984
vn 0.6703 0.6332 0.3870
vn -0.9999 0.0131 -0.0017
vn -0.7740 0.6332 0.0000
vn -0.0017 0.0131 -0.9999
vn 0.0000 0.6332 -0.7740
vn 0.9968 0.0724 0.0326
vn 0.7740 0.6332 0.0000
vn -0.8650 0.0131 0.5014
vn -0.6703 0.6332 0.3870
vn 0.0000 0.9805 -0.1964
vn 0.0982 0.9805 -0.1701
vn 0.1964 0.9805 0.0000
vn 0.1701 0.9805 0.0982
vn -0.1701 0.9805 0.0982
vn -0.1964 0.9805 0.0000
vn -0.0982 0.9805 -0.1701
vn 0.1701 0.9805 -0.0982
vn -0.0982 0.9805 0.1701
vn 0.0982 0.9805 0.1701
vn 0.0000 0.9805 0.1964
vn -0.1701 0.9805 -0.0982
vn 0.0391 0.7059 0.7072
vn 0.8440 0.0982 0.5273
vn -0.3197 0.7059 -0.6320
vn -0.6320 0.7059 -0.3197
vn 0.5929 0.7059 -0.3874
vn 0.0346 0.0982 -0.9945
vn -0.3874 0.7059 0.5929
vn 0.5273 0.0982 0.8440
vn -0.8786 0.0982 0.4673
vn 0.4673 0.0982 -0.8786
vn 0.7072 0.7059 0.0391
vn -0.9945 0.0982 0.0346
vn -0.3280 0.5579 -0.7623
vn 0.6652 0.5579 -0.4962
vn 0.1390 0.5925 -0.7934
vn 0.8242 0.5579 0.0971
vn 0.0971 0.5579 0.8242
vn -0.7934 0.5925 0.1390
vn -0.7566 0.5925 0.2763
vn 0.5171 0.5925 0.6176
vn 0.6176 0.5925 0.5171
vn 0.2763 0.5925 -0.7566
vn -0.7623 0.5579 -0.3280
vn -0.4962 0.5579 0.6652
usemtl None
s 1
f 110//1 109//2 13//3 14//4
f 112//5 111//6 20//7 21//8
f 114//9 113//10 17//11 18//12
f 109//2 115//13 24//14 13//3
f 116//15 110//1 14//4 15//16
f 117//17 112//5 21//8 22//18
f 118//19 114//9 18//12 19//20
f 119//21 116//15 15//16 16//22
f 120//23 117//17 22//18 23//24
f 111//6 118//19 19//20 20//7
f 113//10 119//21 16//22 17//11
f 115//13 120//23 23//24 24//14
f 19//20 18//12 30//25 31//26
f 16//22 15//16 27//27 28//28
f 23//24 22//18 34//29 35//30
f 20//7 19//20 31//26 32//31
f 17//11 16//22 28//28 29//32
f 24//14 23//24 35//30 36//33
f 14//4 13//3 25//34 26//35
f 21//8 20//7 32//31 33//36
f 18//12 17//11 29//32 30//25
f 13//3 24//14 36//33 25//34
f 15//16 14//4 26//35 27//27
f 22//18 21//8 33//36 34//29
f 26//35 25//34 36//33 35//30 34//29 33//36 32//31 31//26 30//25 29//32 28//28 27//27
f 1//37 2//38 38//39 37//40
f 8//41 9//42 45//43 44//44
f 5//45 6//46 42//47 41//48
f 12//49 1//37 37//40 48//50
f 2//38 3//51 39//52 38//39
f 9//42 10//53 46//54 45//43
f 6//46 7//55 43//56 42//47
f 3//51 4//57 40//58 39//52
f 10//53 11//59 47//60 46//54
f 7//55 8//41 44//44 43//56
f 4//57 5//45 41//48 40//58
f 11//59 12//49 48//50 47//60
f 50//61 62//62 61//63 49//64
f 57//65 69//66 68//67 56//68
f 54//69 66//70 65//71 53//72
f 49//64 61//63 72//73 60//74
f 51//75 63//76 62//62 50//61
f 58//77 70//78 69//66 57//65
f 55//79 67//80 66//70 54//69
f 52//81 64//82 63//76 51//75
f 59//83 71//84 70//78 58//77
f 56//68 68//67 67//80 55//79
f 53//72 65//71 64//82 52//81
f 60//74 72//73 71//84 59//83
f 67//80 79//85 78//86 66//70
f 64//82 76//87 75//88 63//76
f 71//84 83//89 82//90 70//78
f 68//67 80//91 79//85 67//80
f 65//71 77//92 76//87 64//82
f 72//73 84//93 83//89 71//84
f 62//62 74//94 73//95 61//63
f 69//66 81//96 80//91 68//67
f 66//70 78//86 77//92 65//71
f 61//63 73//95 84//93 72//73
f 63//76 75//88 74//94 62//62
f 70//78 82//90 81//96 69//66
f 74//94 75//88 76//87 77//92 78//86 79//85 80//91 81//96 82//90 83//89 84//93 73//95
f 49//64 85//97 86//98 50//61
f 56//68 92//99 93//100 57//65
f 53//72 89//101 90//102 54//69
f 60//74 96//103 85//97 49//64
f 50//61 86//98 87//104 51//75
f 57//65 93//100 94//105 58//77
f 54//69 90//102 91//106 55//79
f 51//75 87//104 88//107 52//81
f 58//77 94//105 95//108 59//83
f 55//79 91//106 92//99 56//68
f 52//81 88//107 89//101 53//72
f 59//83 95//108 96//103 60//74
f 37//40 38//39 86//98 85//97
f 91//106 90//102 106//109 105//110
f 39//52 40//58 88//107 87//104
f 40//58 41//48 89//101 88//107
f 41//48 42//47 90//102 89//101
f 86//98 38//39 98//111 104//112
f 43//56 44//44 92//99 91//106
f 44//44 45//43 93//100 92//99
f 45//43 46//54 94//105 93//100
f 87//104 86//98 104//112 103//113
f 47//60 48//50 96//103 95//108
f 48//50 37//40 85//97 96//103
f 98//111 97//114 103//113 104//112
f 100//115 99//116 105//110 106//109
f 102//117 101//118 107//119 108//120
f 90//102 42//47 100//115 106//109
f 38//39 39//52 97//114 98//111
f 39//52 87//104 103//113 97//114
f 95//108 94//105 108//120 107//119
f 94//105 46//54 102//117 108//120
f 42//47 43//56 99//116 100//115
f 43//56 91//106 105//110 99//116
f 46//54 47//60 101//118 102//117
f 47//60 95//108 107//119 101//118
f 12//49 11//59 120//23 115//13
f 5//45 4//57 119//21 113//10
f 8//41 7//55 118//19 111//6
f 11//59 10//53 117//17 120//23
f 4//57 3//51 116//15 119//21
f 7//55 6//46 114//9 118//19
f 10//53 9//42 112//5 117//17
f 3//51 2//38 110//1 116//15
f 1//37 12//49 115//13 109//2
f 6//46 5//45 113//10 114//9
f 9//42 8//41 111//6 112//5
f 2//38 1//37 109//2 110//1
