# Blender v2.79 (sub 0) OBJ File: 'jaguar_body.blend'
# www.blender.org
mtllib jaguar_body.mtl
o Plane
v -0.031746 0.089291 0.239525
v 0.118595 0.089291 0.239525
v 0.110177 0.096255 0.239525
v -0.023328 0.096255 0.239525
v 0.118595 0.089291 0.252212
v 0.110177 0.096255 0.252212
v -0.023328 0.066197 0.239525
v -0.023328 0.066197 0.252212
v 0.110177 0.066197 0.252212
v 0.110177 0.066197 0.239525
v -0.023328 0.096255 0.252212
v 0.118595 0.073161 0.252212
v 0.118595 0.073161 0.239525
v -0.031746 0.073161 0.239525
v -0.184150 0.000000 0.068804
v -0.184150 0.000000 -0.252212
v 0.184150 0.000000 -0.252212
v 0.184150 0.000000 0.068804
v -0.184150 0.160971 0.068804
v 0.184150 0.160971 0.068804
v 0.184150 0.160971 -0.252212
v -0.184150 0.160971 -0.252212
v -0.184150 -0.000000 0.230826
v -0.184150 0.021675 0.252212
v -0.184150 0.111966 0.252212
v -0.184150 0.134594 0.230826
v 0.184150 0.021675 0.252212
v 0.184150 0.111966 0.252212
v -0.031746 0.073161 0.252212
v 0.184150 -0.000000 0.230826
v 0.184150 0.134594 0.230826
v -0.031746 0.089291 0.252212
v -0.137853 0.063757 0.251199
v -0.137853 0.063757 0.255352
v -0.128913 0.061504 0.255352
v -0.128913 0.061504 0.251199
v -0.122369 0.055351 0.255352
v -0.122369 0.055351 0.251199
v -0.119973 0.046944 0.255352
v -0.119973 0.046944 0.251199
v -0.122369 0.038537 0.255352
v -0.122369 0.038537 0.251199
v -0.128913 0.032383 0.255352
v -0.128913 0.032383 0.251199
v -0.137853 0.030131 0.255352
v -0.137853 0.030131 0.251199
v -0.146792 0.032383 0.255352
v -0.146792 0.032383 0.251199
v -0.153337 0.038537 0.255352
v -0.153337 0.038537 0.251199
v -0.155732 0.046944 0.255352
v -0.155732 0.046944 0.251199
v -0.153337 0.055351 0.255352
v -0.153337 0.055351 0.251199
v -0.130352 0.034726 0.255352
v -0.137853 0.032836 0.255352
v -0.146792 0.061504 0.255352
v -0.146792 0.061504 0.251199
v -0.130352 0.034726 0.253391
v -0.137853 0.032836 0.253391
v -0.124860 0.039890 0.255352
v -0.122850 0.046944 0.255352
v -0.145354 0.059161 0.255352
v -0.137853 0.061052 0.255352
v -0.130352 0.059161 0.255352
v -0.124860 0.053998 0.255352
v -0.150845 0.053998 0.255352
v -0.152855 0.046944 0.255352
v -0.150845 0.039890 0.255352
v -0.145354 0.034726 0.255352
v -0.130352 0.059161 0.253391
v -0.137853 0.061052 0.253391
v -0.145354 0.059161 0.253391
v -0.150845 0.053998 0.253391
v -0.152855 0.046944 0.253391
v -0.150845 0.039890 0.253391
v -0.145354 0.034726 0.253391
v -0.124860 0.039890 0.253391
v -0.122850 0.046944 0.253391
v -0.124860 0.053998 0.253391
v -0.137853 0.102066 0.251199
v -0.137853 0.102066 0.255352
v -0.128913 0.099814 0.255352
v -0.128913 0.099814 0.251199
v -0.122369 0.093660 0.255352
v -0.122369 0.093660 0.251199
v -0.119973 0.085253 0.255352
v -0.119973 0.085253 0.251199
v -0.122369 0.076847 0.255352
v -0.122369 0.076847 0.251199
v -0.128913 0.070693 0.255352
v -0.128913 0.070693 0.251199
v -0.137853 0.068440 0.255352
v -0.137853 0.068440 0.251199
v -0.146792 0.070693 0.255352
v -0.146792 0.070693 0.251199
v -0.153337 0.076847 0.255352
v -0.153337 0.076847 0.251199
v -0.155732 0.085253 0.255352
v -0.155732 0.085253 0.251199
v -0.153337 0.093660 0.255352
v -0.153337 0.093660 0.251199
v -0.130352 0.073036 0.255352
v -0.137853 0.071146 0.255352
v -0.146792 0.099814 0.255352
v -0.146792 0.099814 0.251199
v -0.130352 0.073036 0.253391
v -0.137853 0.071146 0.253391
v -0.124860 0.078199 0.255352
v -0.122850 0.085253 0.255352
v -0.145354 0.097471 0.255352
v -0.137853 0.099361 0.255352
v -0.130352 0.097471 0.255352
v -0.124860 0.092307 0.255352
v -0.150845 0.092307 0.255352
v -0.152855 0.085253 0.255352
v -0.150845 0.078199 0.255352
v -0.145354 0.073036 0.255352
v -0.130352 0.097471 0.253391
v -0.137853 0.099361 0.253391
v -0.145354 0.097471 0.253391
v -0.150845 0.092307 0.253391
v -0.152855 0.085253 0.253391
v -0.150845 0.078199 0.253391
v -0.145354 0.073036 0.253391
v -0.124860 0.078199 0.253391
v -0.122850 0.085253 0.253391
v -0.124860 0.092307 0.253391
v -0.074695 0.103596 0.250764
v -0.074695 0.103596 0.255788
v -0.063880 0.100871 0.255788
v -0.063880 0.100871 0.250764
v -0.055963 0.093427 0.255788
v -0.055963 0.093427 0.250764
v -0.053066 0.083257 0.255788
v -0.053066 0.083257 0.250764
v -0.055963 0.073087 0.255788
v -0.055963 0.073087 0.250764
v -0.063880 0.065642 0.255788
v -0.063880 0.065642 0.250764
v -0.074695 0.062917 0.255788
v -0.074695 0.062917 0.250764
v -0.085510 0.065642 0.255788
v -0.085510 0.065642 0.250764
v -0.093427 0.073087 0.255788
v -0.093427 0.073087 0.250764
v -0.096325 0.083257 0.255788
v -0.096325 0.083257 0.250764
v -0.093427 0.093427 0.255788
v -0.093427 0.093427 0.250764
v -0.065621 0.068477 0.255788
v -0.074695 0.066190 0.255788
v -0.085510 0.100871 0.255788
v -0.085510 0.100871 0.250764
v -0.065621 0.068477 0.253415
v -0.074695 0.066190 0.253415
v -0.058977 0.074724 0.255788
v -0.056546 0.083257 0.255788
v -0.083770 0.098037 0.255788
v -0.074695 0.100323 0.255788
v -0.065621 0.098037 0.255788
v -0.058977 0.091790 0.255788
v -0.090412 0.091790 0.255788
v -0.092844 0.083257 0.255788
v -0.090412 0.074724 0.255788
v -0.083770 0.068477 0.255788
v -0.065621 0.098037 0.253415
v -0.074695 0.100323 0.253415
v -0.083770 0.098037 0.253415
v -0.090412 0.091790 0.253415
v -0.092844 0.083257 0.253415
v -0.090412 0.074724 0.253415
v -0.083770 0.068477 0.253415
v -0.058977 0.074724 0.253415
v -0.056546 0.083257 0.253415
v -0.058977 0.091790 0.253415
v -0.068924 0.163735 -0.083681
v 0.068924 0.163735 -0.083681
v 0.040535 0.163735 -0.136472
v 0.035104 0.163735 -0.118306
v 0.020267 0.163735 -0.105008
v 0.000000 0.163735 -0.100140
v -0.020267 0.163735 -0.105008
v -0.035104 0.163735 -0.118306
v -0.040535 0.163735 -0.136472
v -0.035104 0.163735 -0.154637
v -0.020268 0.163735 -0.167936
v 0.000000 0.163735 -0.172803
v 0.020267 0.163735 -0.167936
v 0.035104 0.163735 -0.154637
v 0.068924 0.163735 -0.189262
v -0.068924 0.163735 -0.189262
v -0.068924 0.160144 -0.083681
v 0.068924 0.160144 -0.083681
v 0.020267 0.160144 -0.167936
v 0.035104 0.160144 -0.154637
v 0.068924 0.160144 -0.189262
v 0.040535 0.160144 -0.136472
v -0.068924 0.160144 -0.189262
v 0.000000 0.160144 -0.100140
v -0.020267 0.160144 -0.105008
v 0.035104 0.160144 -0.118306
v 0.020267 0.160144 -0.105008
v 0.000000 0.160144 -0.172803
v -0.035104 0.160144 -0.118306
v -0.040535 0.160144 -0.136472
v -0.035104 0.160144 -0.154637
v -0.020268 0.160144 -0.167936
v 0.054729 0.163735 -0.093677
v 0.068924 0.163735 -0.136471
v -0.184150 0.160971 -0.065151
v -0.054729 0.163735 -0.093677
v 0.184150 0.160971 -0.065151
v -0.068924 0.163735 -0.136471
vt 0.415948 0.322423
vt 0.415948 0.009740
vt 0.800567 0.009740
vt 0.800567 0.322423
vt 0.584052 0.678079
vt 0.584052 0.990260
vt 0.415948 0.990260
vt 0.415948 0.834169
vt 0.415948 0.678079
vt 0.821453 0.030538
vt 0.844089 0.009740
vt 0.938380 0.009740
vt 0.962011 0.030538
vt 0.604938 0.854879
vt 0.604938 0.499720
vt 0.773042 0.499719
vt 0.773042 0.854879
vt 0.128366 0.499946
vt 0.128366 0.858684
vt 0.034074 0.858684
vt 0.057753 0.794831
vt 0.074599 0.794831
vt 0.081871 0.786632
vt 0.081871 0.656592
vt 0.074599 0.648393
vt 0.034074 0.499946
vt 0.821453 0.500280
vt 0.821453 0.188100
vt 0.989557 0.188100
vt 0.989557 0.344190
vt 0.989557 0.500280
vt 0.584052 0.520517
vt 0.443494 0.520517
vt 0.415948 0.480239
vt 0.800567 0.480239
vt 0.151001 0.499946
vt 0.151001 0.858684
vt 0.010443 0.858684
vt 0.010443 0.499946
vt 0.561416 0.499720
vt 0.467125 0.499719
vt 0.057753 0.648393
vt 0.050481 0.656592
vt 0.050481 0.786632
vt 0.392530 0.686754
vt 0.387968 0.694661
vt 0.385962 0.692745
vt 0.389790 0.686110
vt 0.380066 0.699378
vt 0.379332 0.696703
vt 0.370942 0.699640
vt 0.371676 0.696922
vt 0.358479 0.678751
vt 0.363040 0.670844
vt 0.365046 0.672760
vt 0.361218 0.679395
vt 0.358478 0.687731
vt 0.361218 0.686930
vt 0.363040 0.695377
vt 0.365046 0.693345
vt 0.370942 0.666127
vt 0.371676 0.668802
vt 0.380066 0.665865
vt 0.379332 0.668583
vt 0.387968 0.670128
vt 0.385962 0.672160
vt 0.392530 0.677774
vt 0.389790 0.678575
vt 0.205939 0.734924
vt 0.201377 0.742832
vt 0.199371 0.740915
vt 0.203199 0.734280
vt 0.193475 0.747548
vt 0.192741 0.744873
vt 0.184351 0.747810
vt 0.185085 0.745093
vt 0.171888 0.726921
vt 0.176450 0.719014
vt 0.178455 0.720930
vt 0.174627 0.727565
vt 0.171888 0.735901
vt 0.174628 0.735100
vt 0.176449 0.743547
vt 0.178455 0.741516
vt 0.184351 0.714297
vt 0.185085 0.716973
vt 0.193476 0.714035
vt 0.192741 0.716753
vt 0.201377 0.718298
vt 0.199372 0.720330
vt 0.205939 0.725944
vt 0.203199 0.726746
vt 0.213082 0.678966
vt 0.207562 0.688532
vt 0.205136 0.686214
vt 0.209767 0.678187
vt 0.198003 0.694238
vt 0.197115 0.691002
vt 0.186965 0.694554
vt 0.187853 0.691267
vt 0.171888 0.669284
vt 0.177407 0.659718
vt 0.179833 0.662036
vt 0.175202 0.670063
vt 0.171888 0.680148
vt 0.175202 0.679178
vt 0.177406 0.689397
vt 0.179832 0.686940
vt 0.186966 0.654012
vt 0.187854 0.657249
vt 0.198004 0.653696
vt 0.197116 0.656983
vt 0.207563 0.658853
vt 0.205137 0.661311
vt 0.213082 0.668103
vt 0.209767 0.669072
vt 0.282141 0.499946
vt 0.282141 0.634215
vt 0.254577 0.620389
vt 0.254577 0.513772
vt 0.227014 0.527597
vt 0.208044 0.532887
vt 0.194157 0.547339
vt 0.189074 0.567080
vt 0.194157 0.586821
vt 0.208044 0.601273
vt 0.227014 0.606563
vt 0.227014 0.634215
vt 0.171888 0.634215
vt 0.171888 0.499946
vt 0.227014 0.499946
vt 0.357106 0.634215
vt 0.357106 0.499946
vt 0.360857 0.499946
vt 0.360857 0.634215
vt 0.793928 0.754804
vt 0.793928 0.652130
vt 0.797679 0.652130
vt 0.797679 0.703467
vt 0.797679 0.754804
vt 0.793928 0.632649
vt 0.793928 0.499719
vt 0.797679 0.499719
vt 0.797679 0.632649
vt 0.233968 0.756370
vt 0.233968 0.653696
vt 0.237718 0.653696
vt 0.237718 0.705033
vt 0.237718 0.756370
vt 0.245984 0.601273
vt 0.259870 0.586821
vt 0.264953 0.567080
vt 0.259870 0.547339
vt 0.245984 0.532887
vt 0.395062 0.166074
vt 0.010443 0.166074
vt 0.010443 0.009740
vt 0.395062 0.009740
vt 0.821453 0.519761
vt 0.834703 0.519761
vt 0.834703 0.527961
vt 0.821453 0.527961
vt 0.381813 0.508145
vt 0.395062 0.508145
vt 0.395062 0.638185
vt 0.381813 0.638185
vt 0.834703 0.658000
vt 0.821453 0.658000
vt 0.394992 0.646384
vt 0.381743 0.646384
vt 0.284256 0.767450
vt 0.297485 0.767450
vt 0.297485 0.783162
vt 0.284256 0.783162
vt 0.381743 0.499946
vt 0.394992 0.499946
vt 0.834703 0.666200
vt 0.821453 0.666200
vt 0.331599 0.783162
vt 0.318371 0.783162
vt 0.318371 0.767450
vt 0.331599 0.767450
vt 0.383786 0.782023
vt 0.388123 0.782023
vt 0.388146 0.790731
vt 0.383809 0.790731
vt 0.388208 0.797105
vt 0.383871 0.797105
vt 0.309756 0.802643
vt 0.314086 0.802643
vt 0.313944 0.810831
vt 0.309614 0.810831
vt 0.314086 0.819019
vt 0.309756 0.819019
vt 0.201448 0.797455
vt 0.197111 0.797455
vt 0.197111 0.791081
vt 0.201448 0.791081
vt 0.197111 0.782373
vt 0.201448 0.782373
vt 0.197111 0.773666
vt 0.201448 0.773666
vt 0.197111 0.767291
vt 0.201448 0.767291
vt 0.883066 0.657266
vt 0.878736 0.657266
vt 0.878594 0.649078
vt 0.882924 0.649078
vt 0.878736 0.640890
vt 0.883066 0.640890
vt 0.383871 0.766941
vt 0.388208 0.766941
vt 0.388146 0.773316
vt 0.383809 0.773316
vt 0.857708 0.653544
vt 0.857689 0.660851
vt 0.855641 0.660851
vt 0.855660 0.653544
vt 0.258724 0.816997
vt 0.258605 0.810126
vt 0.260650 0.810126
vt 0.260769 0.816997
vt 0.794047 0.827318
vt 0.793928 0.820447
vt 0.795973 0.820447
vt 0.796092 0.827318
vt 0.857689 0.646238
vt 0.855641 0.646238
vt 0.258605 0.823867
vt 0.260650 0.823867
vt 0.872325 0.702210
vt 0.872325 0.696862
vt 0.874373 0.696862
vt 0.874373 0.702210
vt 0.872325 0.716823
vt 0.872325 0.709516
vt 0.874373 0.709516
vt 0.874373 0.716823
vt 0.857637 0.640890
vt 0.855589 0.640890
vt 0.857637 0.666200
vt 0.855589 0.666200
vt 0.872325 0.722172
vt 0.874373 0.722172
vt 0.794047 0.813577
vt 0.796092 0.813577
vt 0.358478 0.782023
vt 0.362815 0.782023
vt 0.362838 0.790731
vt 0.358501 0.790731
vt 0.362900 0.797105
vt 0.358563 0.797105
vt 0.288586 0.819019
vt 0.284256 0.819019
vt 0.284398 0.810831
vt 0.288728 0.810831
vt 0.284256 0.802643
vt 0.288586 0.802643
vt 0.176224 0.797455
vt 0.171888 0.797455
vt 0.171888 0.791081
vt 0.176224 0.791081
vt 0.171888 0.782373
vt 0.176224 0.782373
vt 0.171888 0.773666
vt 0.176224 0.773666
vt 0.171888 0.767291
vt 0.176224 0.767291
vt 0.846090 0.797625
vt 0.850420 0.797625
vt 0.850562 0.805813
vt 0.846232 0.805813
vt 0.850420 0.814001
vt 0.846090 0.814001
vt 0.358563 0.766941
vt 0.362900 0.766941
vt 0.362838 0.773316
vt 0.358501 0.773316
vt 0.872223 0.754308
vt 0.872242 0.747001
vt 0.874290 0.747001
vt 0.874271 0.754308
vt 0.881084 0.526632
vt 0.881203 0.533503
vt 0.879158 0.533503
vt 0.879039 0.526632
vt 0.879072 0.619707
vt 0.878953 0.612836
vt 0.880998 0.612836
vt 0.881117 0.619707
vt 0.872242 0.761614
vt 0.874290 0.761614
vt 0.881203 0.519761
vt 0.879158 0.519761
vt 0.872223 0.791792
vt 0.872223 0.786443
vt 0.874271 0.786443
vt 0.874271 0.791792
vt 0.872223 0.806405
vt 0.872223 0.799098
vt 0.874271 0.799098
vt 0.874271 0.806405
vt 0.872294 0.766963
vt 0.874342 0.766963
vt 0.872294 0.741653
vt 0.874342 0.741653
vt 0.872223 0.811754
vt 0.874271 0.811754
vt 0.879072 0.605965
vt 0.881117 0.605965
vt 0.846090 0.703926
vt 0.851336 0.703926
vt 0.851364 0.714460
vt 0.846117 0.714460
vt 0.851439 0.722172
vt 0.846193 0.722172
vt 0.232480 0.775850
vt 0.237718 0.775850
vt 0.237547 0.785756
vt 0.232309 0.785756
vt 0.237718 0.795662
vt 0.232480 0.795662
vt 0.851337 0.778144
vt 0.846090 0.778144
vt 0.846090 0.770432
vt 0.851337 0.770432
vt 0.846090 0.759898
vt 0.851337 0.759898
vt 0.846090 0.749364
vt 0.851337 0.749364
vt 0.846090 0.741653
vt 0.851337 0.741653
vt 0.799338 0.794096
vt 0.794099 0.794096
vt 0.793928 0.784190
vt 0.799166 0.784190
vt 0.794100 0.774285
vt 0.799338 0.774285
vt 0.846193 0.685681
vt 0.851439 0.685681
vt 0.851364 0.693392
vt 0.846117 0.693392
vt 0.855589 0.535071
vt 0.855612 0.526232
vt 0.858089 0.526232
vt 0.858066 0.535071
vt 0.879097 0.578173
vt 0.878953 0.569861
vt 0.881426 0.569861
vt 0.881570 0.578173
vt 0.335116 0.819267
vt 0.334972 0.810955
vt 0.337446 0.810955
vt 0.337589 0.819267
vt 0.855612 0.543910
vt 0.858089 0.543910
vt 0.878953 0.586485
vt 0.881426 0.586485
vt 0.855589 0.576331
vt 0.855589 0.569861
vt 0.858066 0.569861
vt 0.858066 0.576331
vt 0.855589 0.594009
vt 0.855589 0.585170
vt 0.858066 0.585170
vt 0.858066 0.594009
vt 0.855675 0.550380
vt 0.858152 0.550380
vt 0.855675 0.519761
vt 0.858152 0.519761
vt 0.855589 0.600480
vt 0.858066 0.600480
vt 0.335116 0.802643
vt 0.337589 0.802643
vt 0.262355 0.707630
vt 0.262355 0.722082
vt 0.258605 0.722082
vt 0.258605 0.707630
vt 0.262355 0.741563
vt 0.262355 0.758928
vt 0.258605 0.758928
vt 0.258605 0.741563
vt 0.821453 0.722026
vt 0.821453 0.701813
vt 0.825204 0.701813
vt 0.825204 0.722026
vt 0.262355 0.776894
vt 0.262355 0.790645
vt 0.258605 0.790645
vt 0.258605 0.776894
vt 0.262355 0.687889
vt 0.258605 0.687889
vt 0.821453 0.685681
vt 0.825204 0.685681
vt 0.821453 0.740902
vt 0.825204 0.740902
vt 0.821453 0.778348
vt 0.821453 0.760383
vt 0.825204 0.760383
vt 0.825204 0.778348
vt 0.262355 0.668147
vt 0.258605 0.668147
vt 0.821453 0.795714
vt 0.825204 0.795714
vt 0.262355 0.653696
vt 0.258605 0.653696
vt 0.395062 0.322408
vt 0.010443 0.322408
vt 0.395062 0.480465
vt 0.010443 0.480465
vt 0.310299 0.499946
vt 0.310299 0.646384
vt 0.303027 0.638185
vt 0.303027 0.508145
vt 0.334416 0.508145
vt 0.334416 0.638185
vt 0.327145 0.646384
vt 0.327145 0.499946
vt 0.383223 0.723298
vt 0.387051 0.729933
vt 0.387051 0.737468
vt 0.383223 0.743883
vt 0.376592 0.747460
vt 0.368937 0.747241
vt 0.362306 0.743283
vt 0.358478 0.736648
vt 0.358478 0.729113
vt 0.362306 0.722698
vt 0.368936 0.719121
vt 0.376592 0.719340
vt 0.331599 0.729623
vt 0.331599 0.737158
vt 0.327771 0.743792
vt 0.321140 0.747750
vt 0.313484 0.747969
vt 0.306854 0.744392
vt 0.303027 0.737976
vt 0.303027 0.730442
vt 0.306855 0.723807
vt 0.313486 0.719849
vt 0.321142 0.719630
vt 0.327772 0.723207
vt 0.303027 0.688060
vt 0.303027 0.678945
vt 0.307658 0.670918
vt 0.315679 0.666131
vt 0.324941 0.665865
vt 0.332962 0.670193
vt 0.337592 0.677954
vt 0.337592 0.687069
vt 0.332961 0.695096
vt 0.324940 0.699883
vt 0.315678 0.700149
vt 0.307657 0.695822
vn 0.0000 -1.0000 -0.0000
vn 1.0000 -0.0000 0.0000
vn -1.0000 0.0000 0.0000
vn 0.0000 0.0000 -1.0000
vn 0.0000 -0.0000 1.0000
vn 0.0000 -0.7024 0.7118
vn 0.0000 0.6869 0.7268
vn 0.0000 1.0000 0.0000
vn -0.9048 -0.4258 0.0000
vn -0.3387 -0.9409 0.0000
vn 0.3387 0.9409 0.0000
vn -0.3387 0.9409 0.0000
vn 0.3387 -0.9409 0.0000
vn -0.9048 0.4258 0.0000
vn 0.9048 0.4258 0.0000
vn 0.9048 -0.4258 0.0000
vn 0.4801 0.8772 0.0000
vn 0.8542 0.5200 0.0000
vn 0.8542 -0.5200 0.0000
vn 0.4801 -0.8772 0.0000
vn -0.4801 -0.8772 0.0000
vn -0.8542 -0.5200 0.0000
vn -0.8542 0.5200 0.0000
vn -0.4801 0.8772 0.0000
vn -0.4646 0.0000 0.8855
vn -0.8444 0.0000 0.5356
vn 0.4646 0.0000 -0.8855
vn -0.8444 0.0000 -0.5356
vn -0.4646 0.0000 -0.8855
vn 0.8444 0.0000 -0.5356
vn 0.8445 0.0000 0.5356
vn 0.4646 0.0000 0.8855
vn 0.0000 0.9870 0.1607
usemtl jaguar_body
s off
f 15/1/1 16/2/1 17/3/1 18/4/1
f 18/5/2 17/6/2 21/7/2 213/8/2 20/9/2
f 23/10/3 24/11/3 25/12/3 26/13/3
f 17/14/4 16/15/4 22/16/4 21/17/4
f 24/18/5 27/19/5 28/20/5 5/21/5 12/22/5 9/23/5 8/24/5 29/25/5 25/26/5
f 16/27/3 15/28/3 19/29/3 211/30/3 22/31/3
f 30/32/2 18/5/2 20/9/2 31/33/2
f 23/34/1 15/1/1 18/4/1 30/35/1
f 24/18/6 23/36/6 30/37/6 27/19/6
f 25/26/7 28/20/7 31/38/7 26/39/7
f 27/40/2 30/32/2 31/33/2 28/41/2
f 15/28/3 23/10/3 26/13/3 19/29/3
f 25/26/5 29/25/5 32/42/5 11/43/5 6/44/5 5/21/5 28/20/5
f 45/45/5 43/46/5 55/47/5 56/48/5
f 43/46/5 41/49/5 61/50/5 55/47/5
f 41/49/5 39/51/5 62/52/5 61/50/5
f 34/53/5 57/54/5 63/55/5 64/56/5
f 35/57/5 34/53/5 64/56/5 65/58/5
f 39/51/5 37/59/5 66/60/5 62/52/5
f 57/54/5 53/61/5 67/62/5 63/55/5
f 37/59/5 35/57/5 65/58/5 66/60/5
f 53/61/5 51/63/5 68/64/5 67/62/5
f 51/63/5 49/65/5 69/66/5 68/64/5
f 49/65/5 47/67/5 70/68/5 69/66/5
f 47/67/5 45/45/5 56/48/5 70/68/5
f 93/69/5 91/70/5 103/71/5 104/72/5
f 91/70/5 89/73/5 109/74/5 103/71/5
f 89/73/5 87/75/5 110/76/5 109/74/5
f 82/77/5 105/78/5 111/79/5 112/80/5
f 83/81/5 82/77/5 112/80/5 113/82/5
f 87/75/5 85/83/5 114/84/5 110/76/5
f 105/78/5 101/85/5 115/86/5 111/79/5
f 85/83/5 83/81/5 113/82/5 114/84/5
f 101/85/5 99/87/5 116/88/5 115/86/5
f 99/87/5 97/89/5 117/90/5 116/88/5
f 97/89/5 95/91/5 118/92/5 117/90/5
f 95/91/5 93/69/5 104/72/5 118/92/5
f 141/93/5 139/94/5 151/95/5 152/96/5
f 139/94/5 137/97/5 157/98/5 151/95/5
f 137/97/5 135/99/5 158/100/5 157/98/5
f 130/101/5 153/102/5 159/103/5 160/104/5
f 131/105/5 130/101/5 160/104/5 161/106/5
f 135/99/5 133/107/5 162/108/5 158/100/5
f 153/102/5 149/109/5 163/110/5 159/103/5
f 133/107/5 131/105/5 161/106/5 162/108/5
f 149/109/5 147/111/5 164/112/5 163/110/5
f 147/111/5 145/113/5 165/114/5 164/112/5
f 145/113/5 143/115/5 166/116/5 165/114/5
f 143/115/5 141/93/5 152/96/5 166/116/5
f 177/117/8 178/118/8 209/119/8 212/120/8
f 185/121/8 186/122/8 187/123/8 188/124/8 189/125/8 190/126/8 179/127/8 209/119/8 210/128/8 191/129/8 192/130/8 214/131/8 212/120/8
f 193/132/5 194/133/5 178/134/5 177/135/5
f 194/136/2 197/137/2 191/138/2 210/139/2 178/140/2
f 197/141/4 199/142/4 192/143/4 191/144/4
f 199/145/3 193/146/3 177/147/3 214/148/3 192/149/3
f 212/120/8 209/119/8 179/127/8 180/150/8 181/151/8 182/152/8 183/153/8 184/154/8 185/121/8
f 212/120/8 214/131/8 177/117/8
f 210/128/8 209/119/8 178/118/8
f 211/155/8 213/156/8 21/157/8 22/158/8
s 1
f 2/159/9 5/160/9 6/161/10 3/162/10
f 7/163/11 8/164/11 9/165/12 10/166/12
f 3/162/10 6/161/10 11/167/13 4/168/13
f 10/166/12 9/165/12 12/169/14 13/170/14
f 13/171/14 12/172/14 5/173/9 2/174/9
f 8/164/11 7/163/11 14/175/15 29/176/15
f 32/177/16 1/178/16 4/168/13 11/167/13
f 29/179/15 14/180/15 1/181/16 32/182/16
f 33/183/8 34/184/8 35/185/17 36/186/17
f 36/186/17 35/185/17 37/187/18 38/188/18
f 38/189/18 37/190/18 39/191/2 40/192/2
f 40/192/2 39/191/2 41/193/19 42/194/19
f 42/195/19 41/196/19 43/197/20 44/198/20
f 44/198/20 43/197/20 45/199/1 46/200/1
f 46/200/1 45/199/1 47/201/21 48/202/21
f 48/202/21 47/201/21 49/203/22 50/204/22
f 50/205/22 49/206/22 51/207/3 52/208/3
f 52/208/3 51/207/3 53/209/23 54/210/23
f 54/211/23 53/212/23 57/213/24 58/214/24
f 58/214/24 57/213/24 34/184/8 33/183/8
f 56/215/8 55/216/24 59/217/24 60/218/8
f 62/219/3 66/220/22 80/221/22 79/222/3
f 67/223/19 68/224/2 75/225/2 74/226/19
f 70/227/17 56/215/8 60/218/8 77/228/17
f 61/229/23 62/219/3 79/222/3 78/230/23
f 63/231/20 67/232/19 74/233/19 73/234/20
f 65/235/21 64/236/1 72/237/1 71/238/21
f 69/239/18 70/227/17 77/228/17 76/240/18
f 55/216/24 61/241/23 78/242/23 59/217/24
f 64/236/1 63/231/20 73/234/20 72/237/1
f 66/243/22 65/235/21 71/238/21 80/244/22
f 68/224/2 69/245/18 76/246/18 75/225/2
f 81/247/8 82/248/8 83/249/17 84/250/17
f 84/250/17 83/249/17 85/251/18 86/252/18
f 86/253/18 85/254/18 87/255/2 88/256/2
f 88/256/2 87/255/2 89/257/19 90/258/19
f 90/259/19 89/260/19 91/261/20 92/262/20
f 92/262/20 91/261/20 93/263/1 94/264/1
f 94/264/1 93/263/1 95/265/21 96/266/21
f 96/266/21 95/265/21 97/267/22 98/268/22
f 98/269/22 97/270/22 99/271/3 100/272/3
f 100/272/3 99/271/3 101/273/23 102/274/23
f 102/275/23 101/276/23 105/277/24 106/278/24
f 106/278/24 105/277/24 82/248/8 81/247/8
f 104/279/8 103/280/24 107/281/24 108/282/8
f 110/283/3 114/284/22 128/285/22 127/286/3
f 115/287/19 116/288/2 123/289/2 122/290/19
f 118/291/17 104/279/8 108/282/8 125/292/17
f 109/293/23 110/283/3 127/286/3 126/294/23
f 111/295/20 115/296/19 122/297/19 121/298/20
f 113/299/21 112/300/1 120/301/1 119/302/21
f 117/303/18 118/291/17 125/292/17 124/304/18
f 103/280/24 109/305/23 126/306/23 107/281/24
f 112/300/1 111/295/20 121/298/20 120/301/1
f 114/307/22 113/299/21 119/302/21 128/308/22
f 116/288/2 117/309/18 124/310/18 123/289/2
f 129/311/8 130/312/8 131/313/17 132/314/17
f 132/314/17 131/313/17 133/315/18 134/316/18
f 134/317/18 133/318/18 135/319/2 136/320/2
f 136/320/2 135/319/2 137/321/19 138/322/19
f 138/323/19 137/324/19 139/325/20 140/326/20
f 140/326/20 139/325/20 141/327/1 142/328/1
f 142/328/1 141/327/1 143/329/21 144/330/21
f 144/330/21 143/329/21 145/331/22 146/332/22
f 146/333/22 145/334/22 147/335/3 148/336/3
f 148/336/3 147/335/3 149/337/23 150/338/23
f 150/339/23 149/340/23 153/341/24 154/342/24
f 154/342/24 153/341/24 130/312/8 129/311/8
f 152/343/8 151/344/24 155/345/24 156/346/8
f 158/347/3 162/348/22 176/349/22 175/350/3
f 163/351/19 164/352/2 171/353/2 170/354/19
f 166/355/17 152/343/8 156/346/8 173/356/17
f 157/357/23 158/347/3 175/350/3 174/358/23
f 159/359/20 163/360/19 170/361/19 169/362/20
f 161/363/21 160/364/1 168/365/1 167/366/21
f 165/367/18 166/355/17 173/356/17 172/368/18
f 151/344/24 157/369/23 174/370/23 155/345/24
f 160/364/1 159/359/20 169/362/20 168/365/1
f 162/371/22 161/363/21 167/366/21 176/372/22
f 164/352/2 165/373/18 172/374/18 171/353/2
f 195/375/25 196/376/26 190/377/26 189/378/25
f 196/379/26 198/380/3 179/381/3 190/382/26
f 200/383/4 201/384/27 183/385/27 182/386/4
f 202/387/28 203/388/29 181/389/29 180/390/28
f 204/391/5 195/375/25 189/378/25 188/392/5
f 201/384/27 205/393/30 184/394/30 183/385/27
f 198/380/3 202/387/28 180/390/28 179/381/3
f 203/395/29 200/383/4 182/386/4 181/396/29
f 206/397/2 207/398/31 186/399/31 185/400/2
f 208/401/32 204/391/5 188/392/5 187/402/32
f 205/403/30 206/397/2 185/400/2 184/404/30
f 207/405/31 208/401/32 187/402/32 186/406/31
usemtl metal1
s off
f 19/407/8 20/408/8 213/156/8 211/155/8
f 26/409/33 31/410/33 20/408/33 19/407/33
usemtl shiny
f 1/411/5 2/412/5 3/413/5 4/414/5
f 7/415/5 10/416/5 13/417/5 14/418/5
f 14/418/5 13/417/5 2/412/5 1/411/5
f 71/419/5 72/420/5 73/421/5 74/422/5 75/423/5 76/424/5 77/425/5 60/426/5 59/427/5 78/428/5 79/429/5 80/430/5
f 119/431/5 120/432/5 121/433/5 122/434/5 123/435/5 124/436/5 125/437/5 108/438/5 107/439/5 126/440/5 127/441/5 128/442/5
f 167/443/5 168/444/5 169/445/5 170/446/5 171/447/5 172/448/5 173/449/5 156/450/5 155/451/5 174/452/5 175/453/5 176/454/5
