# Blender v2.79 (sub 0) OBJ File: ''
# www.blender.org
mtllib person_template.mtl
o Cube_Cube.001
v -0.169312 0.840428 0.086136
v -0.161275 1.254003 0.009438
v -0.169312 0.840428 -0.085391
v -0.161275 1.254003 -0.082806
v -0.113105 1.034737 0.070148
v -0.113105 1.034737 -0.062718
v -0.169312 1.355426 0.003614
v -0.169312 1.355426 -0.090484
v -0.252691 1.240688 0.009438
v -0.252691 1.240688 -0.082806
v -0.245667 1.330008 0.003614
v -0.245667 1.330008 -0.090484
v -0.215094 1.022619 0.006521
v -0.216791 1.007789 -0.061755
v -0.283246 1.030570 0.005899
v -0.284943 1.015740 -0.062366
v -0.241902 0.816731 0.071983
v -0.243388 0.803749 0.012524
v -0.301562 0.823691 0.071561
v -0.303047 0.810709 0.012111
v -0.125229 0.442064 -0.054342
v -0.147072 0.442064 0.075652
v -0.022240 0.442064 -0.036773
v -0.044083 0.442064 0.093543
v -0.089285 0.065810 -0.068704
v -0.118685 0.065810 0.021561
v -0.015824 0.065810 -0.044777
v -0.045224 0.065810 0.045488
v -0.089285 -0.000021 -0.068704
v -0.118685 -0.000021 0.021561
v -0.015824 -0.000021 -0.044777
v -0.045224 -0.000021 0.045488
v -0.156190 0.065810 0.136709
v -0.082729 0.065810 0.160636
v -0.156190 -0.000021 0.136709
v -0.082729 -0.000021 0.160636
v -0.100262 1.387042 -0.101483
v -0.100262 1.387042 0.032294
v -0.052142 1.425451 -0.101989
v -0.052142 1.425451 0.004465
v -0.052142 1.519333 -0.100158
v -0.052142 1.492016 0.002800
v -0.085458 1.552155 -0.083045
v -0.085458 1.502456 0.041848
v -0.085458 1.704226 -0.087891
v -0.085458 1.696247 0.046118
v -0.281424 0.740137 0.110863
v -0.282910 0.727155 0.025232
v -0.307619 0.743193 0.110776
v -0.309105 0.730212 0.025147
v -0.293234 0.652393 0.124859
v -0.291261 0.639008 0.056540
v -0.319396 0.655445 0.123454
v -0.317423 0.642060 0.055137
v 0.169312 0.840428 0.086136
v 0.161275 1.254003 0.009438
v 0.169312 0.840428 -0.085391
v 0.161275 1.254003 -0.082806
v 0.000000 0.840428 -0.084838
v 0.000000 1.255785 -0.112481
v 0.000000 0.840428 0.086460
v 0.000000 1.255785 0.060974
v 0.113105 1.034737 0.070148
v 0.113105 1.034737 -0.062718
v 0.000000 1.034737 0.069485
v 0.000000 1.034737 -0.062715
v 0.169312 1.355426 0.003614
v 0.169312 1.355426 -0.090484
v 0.000000 1.355426 0.060974
v 0.000000 1.355426 -0.112481
v 0.252691 1.240688 0.009438
v 0.252691 1.240688 -0.082806
v 0.245667 1.330008 0.003614
v 0.245667 1.330008 -0.090484
v 0.215094 1.022619 0.006521
v 0.216791 1.007789 -0.061755
v 0.283246 1.030570 0.005899
v 0.284943 1.015740 -0.062366
v 0.241902 0.816731 0.071983
v 0.243388 0.803749 0.012524
v 0.301562 0.823691 0.071561
v 0.303047 0.810709 0.012111
v 0.125229 0.442064 -0.054342
v 0.147072 0.442064 0.075652
v 0.022240 0.442064 -0.036773
v 0.044083 0.442064 0.093543
v 0.089285 0.065810 -0.068704
v 0.118685 0.065810 0.021561
v 0.015824 0.065810 -0.044777
v 0.045224 0.065810 0.045488
v 0.089285 -0.000021 -0.068704
v 0.118685 -0.000021 0.021561
v 0.015824 -0.000021 -0.044777
v 0.045224 -0.000021 0.045488
v 0.156190 0.065810 0.136709
v 0.082729 0.065810 0.160636
v 0.156190 -0.000021 0.136709
v 0.082729 -0.000021 0.160636
v 0.100262 1.387042 -0.101483
v 0.100262 1.387042 0.032294
v 0.052142 1.425451 -0.101989
v 0.000000 1.425451 -0.111494
v 0.000000 1.425451 0.024096
v 0.052142 1.425451 0.004465
v 0.052142 1.519333 -0.100158
v 0.000000 1.521772 -0.109351
v 0.000000 1.486978 0.021787
v 0.052142 1.492016 0.002800
v 0.085458 1.552155 -0.083045
v 0.000000 1.566276 -0.118531
v 0.000000 1.482044 0.093142
v 0.085458 1.502456 0.041848
v 0.085458 1.704226 -0.087891
v 0.000000 1.706493 -0.125968
v 0.000000 1.692970 0.101156
v 0.085458 1.696247 0.046118
v 0.000000 1.749979 -0.012406
v 0.281424 0.740137 0.110863
v 0.282910 0.727155 0.025232
v 0.307619 0.743193 0.110776
v 0.309105 0.730212 0.025147
v 0.293234 0.652393 0.124859
v 0.291261 0.639008 0.056540
v 0.319396 0.655445 0.123454
v 0.317423 0.642060 0.055137
vn -0.9767 -0.2146 0.0000
vn 0.0059 0.0385 0.9992
vn -0.3041 -0.0242 0.9523
vn 0.9984 -0.0557 0.0000
vn 0.0000 -0.2196 -0.9756
vn 0.0032 0.1150 -0.9934
vn -0.0019 0.0826 0.9966
vn -0.9606 0.2779 0.0000
vn -0.6238 0.7816 0.0000
vn -0.9969 0.0784 0.0000
vn -0.1801 -0.0553 -0.9821
vn -0.3158 0.9488 0.0000
vn 0.0245 -0.0735 -0.9970
vn -0.0016 -0.0903 -0.9959
vn -0.0096 0.0658 0.9978
vn -0.0311 -0.3388 -0.9403
vn -0.9896 0.1439 0.0000
vn 0.9757 -0.2180 0.0231
vn 0.0019 -0.0131 0.9999
vn 0.8912 -0.4473 0.0754
vn 0.9918 -0.1281 0.0032
vn 0.0282 0.2995 0.9537
vn -0.9959 0.0898 0.0053
vn 0.9508 0.0096 0.3097
vn -0.0019 0.0180 0.9998
vn 0.0033 -0.0773 -0.9970
vn -0.9849 -0.0506 -0.1655
vn 0.0000 1.0000 0.0000
vn 0.1679 0.0536 -0.9843
vn -0.3075 -0.1196 0.9440
vn -0.9849 -0.0505 -0.1655
vn 0.0000 -1.0000 -0.0000
vn -0.9508 0.0000 -0.3097
vn 0.9508 0.0000 0.3097
vn 0.3097 0.0000 -0.9508
vn -0.3097 0.0000 0.9508
vn -0.4054 -0.0484 -0.9128
vn -0.4163 0.9092 0.0000
vn -0.1793 0.0139 -0.9837
vn -0.0326 0.6129 0.7895
vn -0.7350 -0.6554 -0.1739
vn -0.3401 0.0235 0.9401
vn -0.1746 0.0219 -0.9844
vn -1.0000 0.0000 0.0000
vn -0.5419 -0.0185 0.8403
vn -0.1811 0.9184 -0.3517
vn -0.1450 -0.9797 0.1382
vn -0.1611 -0.1994 -0.9666
vn -0.2468 0.8661 0.4348
vn -0.5062 0.8609 0.0513
vn 0.0149 0.1555 0.9877
vn 0.0443 0.4339 0.8999
vn -0.9970 0.0777 0.0055
vn -0.0153 -0.1587 -0.9872
vn -0.1237 -0.9745 0.1874
vn -0.9907 0.1253 -0.0532
vn -0.0341 -0.3190 -0.9471
vn 0.9954 -0.0953 -0.0028
vn 0.9767 -0.2146 0.0000
vn -0.0059 0.0385 0.9992
vn 0.2750 0.0000 0.9614
vn -0.9984 -0.0557 0.0000
vn 0.1781 -0.1285 -0.9756
vn -0.0032 0.1150 -0.9934
vn -0.0058 0.0870 0.9962
vn 0.9606 0.2779 0.0000
vn 0.6238 0.7816 0.0000
vn 0.9969 0.0784 0.0000
vn 0.1190 -0.0843 -0.9893
vn 0.3158 0.9488 0.0000
vn -0.0245 -0.0735 -0.9970
vn -0.0128 -0.0880 -0.9960
vn 0.0186 0.0559 0.9983
vn 0.0311 -0.3388 -0.9403
vn 0.9896 0.1439 0.0000
vn -0.9740 -0.2265 0.0000
vn -0.0019 -0.0131 0.9999
vn -0.8912 -0.4473 0.0754
vn -0.9918 -0.1281 0.0032
vn -0.0263 0.3003 0.9535
vn 0.9959 0.0898 0.0052
vn -0.9860 -0.0241 0.1653
vn 0.0019 0.0180 0.9998
vn -0.0033 -0.0773 -0.9970
vn 0.9939 -0.1100 0.0000
vn -0.1679 0.0536 -0.9843
vn 0.1692 -0.1527 0.9737
vn 0.9849 -0.0505 -0.1655
vn 0.9508 0.0000 -0.3097
vn -0.9508 0.0000 0.3097
vn -0.3097 0.0000 -0.9508
vn 0.3097 0.0000 0.9508
vn 0.3792 -0.0295 -0.9249
vn 0.4163 0.9092 0.0000
vn 0.0810 0.0884 -0.9928
vn 0.0326 0.6129 0.7895
vn 0.7350 -0.6554 -0.1739
vn 0.3521 0.0351 0.9353
vn 0.1793 0.0192 -0.9836
vn 1.0000 0.0000 0.0000
vn 0.5201 -0.0324 0.8535
vn 0.1811 0.9184 -0.3517
vn 0.1450 -0.9797 0.1382
vn 0.1611 -0.1994 -0.9666
vn 0.2468 0.8661 0.4348
vn 0.5062 0.8609 0.0513
vn -0.0149 0.1556 0.9877
vn -0.0443 0.4339 0.8999
vn 0.9970 0.0764 0.0082
vn 0.0116 -0.1578 -0.9874
vn 0.1237 -0.9745 0.1873
vn 0.9955 0.0949 0.0029
vn 0.0341 -0.3190 -0.9471
vn -0.9954 -0.0953 -0.0028
vn -0.3006 0.1926 0.9341
vn -0.3920 0.0218 0.9197
vn -0.2750 0.0000 0.9614
vn 0.9807 -0.1056 0.1644
vn -0.1781 -0.1285 -0.9756
vn 0.0000 0.1131 -0.9936
vn 0.0058 0.0870 0.9962
vn -0.1090 0.0000 -0.9940
vn -0.1190 -0.0843 -0.9893
vn 0.0126 -0.0866 -0.9962
vn 0.0128 -0.0880 -0.9960
vn -0.0186 0.0559 0.9983
vn -0.0329 -0.3381 -0.9405
vn -0.9899 0.1414 -0.0061
vn 0.9740 -0.2265 0.0000
vn -0.0109 -0.0153 0.9998
vn 0.8978 -0.4375 0.0507
vn 0.0263 0.3003 0.9535
vn -0.9959 0.0898 0.0052
vn 0.9860 -0.0241 0.1653
vn -0.1711 -0.0355 0.9846
vn 0.1668 -0.1273 -0.9777
vn -0.9939 -0.1100 0.0000
vn 0.3096 0.0255 -0.9505
vn -0.1692 -0.1527 0.9737
vn -0.9479 -0.0788 -0.3087
vn -0.3792 -0.0295 -0.9249
vn -0.0810 0.0884 -0.9928
vn -0.3160 0.4421 0.8395
vn -0.5867 -0.7524 -0.2994
vn -0.3521 0.0351 0.9353
vn -0.1793 0.0192 -0.9836
vn -0.5201 -0.0324 0.8535
vn -0.1932 -0.9788 -0.0677
vn -0.3933 0.0784 -0.9160
vn -0.0359 0.1476 0.9884
vn 0.0477 0.4345 0.8994
vn -0.9970 0.0764 0.0082
vn -0.0116 -0.1578 -0.9874
vn -0.1237 -0.9745 0.1873
vn -0.9955 0.0949 0.0029
vn 0.0114 -0.3356 -0.9419
vn 0.9908 -0.1249 0.0531
vn 0.3006 0.1926 0.9341
vn 0.3041 -0.0242 0.9523
vn 0.3920 0.0218 0.9197
vn -0.9807 -0.1056 0.1644
vn 0.0019 0.0826 0.9966
vn 0.1801 -0.0553 -0.9821
vn 0.1090 0.0000 -0.9940
vn -0.0126 -0.0866 -0.9962
vn 0.0016 -0.0903 -0.9959
vn 0.0096 0.0658 0.9978
vn 0.0329 -0.3381 -0.9405
vn 0.9899 0.1414 -0.0061
vn -0.9757 -0.2180 0.0231
vn 0.0109 -0.0153 0.9998
vn -0.8978 -0.4375 0.0507
vn -0.0282 0.2995 0.9537
vn 0.9959 0.0898 0.0053
vn -0.9508 0.0096 0.3097
vn 0.1711 -0.0355 0.9846
vn -0.1668 -0.1273 -0.9777
vn 0.9849 -0.0506 -0.1655
vn -0.3096 0.0255 -0.9505
vn 0.3075 -0.1196 0.9440
vn 0.9479 -0.0788 -0.3087
vn 0.4054 -0.0484 -0.9128
vn 0.1793 0.0139 -0.9837
vn 0.3160 0.4421 0.8395
vn 0.5867 -0.7524 -0.2994
vn 0.3401 0.0235 0.9401
vn 0.1746 0.0219 -0.9844
vn 0.5419 -0.0185 0.8403
vn 0.1932 -0.9788 -0.0677
vn 0.3933 0.0784 -0.9160
vn 0.0359 0.1476 0.9884
vn -0.0477 0.4345 0.8994
vn 0.9970 0.0777 0.0055
vn 0.0153 -0.1587 -0.9872
vn 0.1237 -0.9745 0.1874
vn 0.9907 0.1253 -0.0532
vn -0.0114 -0.3356 -0.9419
vn -0.9908 -0.1249 0.0531
usemtl None
s off
f 2//1 6//1 5//1
f 62//2 5//2 65//2
f 62//3 38//3 2//3
f 61//4 23//4 59//4
f 6//5 60//5 66//5
f 6//6 59//6 3//6
f 61//7 5//7 1//7
f 1//8 6//8 3//8
f 37//9 40//9 39//9
f 10//10 11//10 12//10
f 4//11 37//11 60//11
f 8//12 11//12 7//12
f 4//13 12//13 8//13
f 10//14 14//14 16//14
f 2//15 11//15 9//15
f 14//16 20//16 16//16
f 10//17 15//17 9//17
f 4//18 13//18 14//18
f 9//19 13//19 2//19
f 17//20 48//20 18//20
f 13//21 18//21 14//21
f 13//22 19//22 17//22
f 15//23 20//23 19//23
f 23//24 28//24 27//24
f 1//25 24//25 61//25
f 59//26 21//26 3//26
f 1//27 21//27 22//27
f 28//28 33//28 34//28
f 23//29 25//29 21//29
f 24//30 26//30 28//30
f 21//31 26//31 22//31
f 29//32 32//32 30//32
f 25//33 30//33 26//33
f 28//34 31//34 27//34
f 27//35 29//35 25//35
f 33//36 36//36 34//36
f 28//34 36//34 32//34
f 30//33 33//33 26//33
f 32//32 35//32 30//32
f 110//37 45//37 114//37
f 37//38 7//38 38//38
f 70//39 39//39 102//39
f 69//40 40//40 38//40
f 42//41 43//41 41//41
f 40//42 107//42 42//42
f 102//43 41//43 106//43
f 39//44 42//44 41//44
f 44//45 115//45 46//45
f 114//46 45//46 117//46
f 107//47 44//47 42//47
f 41//48 110//48 106//48
f 43//44 46//44 45//44
f 117//49 46//49 115//49
f 46//50 117//50 45//50
f 49//51 51//51 47//51
f 19//52 47//52 17//52
f 19//53 50//53 49//53
f 20//54 48//54 50//54
f 52//55 53//55 54//55
f 49//56 54//56 53//56
f 48//57 54//57 50//57
f 47//58 52//58 48//58
f 64//59 56//59 63//59
f 63//60 62//60 65//60
f 100//61 69//61 62//61
f 85//62 61//62 59//62
f 64//63 60//63 58//63
f 59//64 64//64 57//64
f 61//65 63//65 65//65
f 55//66 64//66 63//66
f 99//67 104//67 100//67
f 72//68 73//68 71//68
f 99//69 68//69 58//69
f 73//70 68//70 67//70
f 74//71 58//71 68//71
f 72//72 76//72 58//72
f 56//73 73//73 67//73
f 82//74 76//74 78//74
f 77//75 72//75 71//75
f 58//76 75//76 56//76
f 75//77 71//77 56//77
f 119//78 79//78 80//78
f 80//79 75//79 76//79
f 75//80 81//80 77//80
f 77//81 82//81 78//81
f 85//82 90//82 86//82
f 86//83 55//83 61//83
f 83//84 59//84 57//84
f 55//85 83//85 57//85
f 90//28 95//28 88//28
f 87//86 85//86 83//86
f 86//87 88//87 84//87
f 88//88 83//88 84//88
f 91//32 94//32 93//32
f 92//89 87//89 88//89
f 93//90 90//90 89//90
f 91//91 89//91 87//91
f 98//92 95//92 96//92
f 98//90 90//90 94//90
f 95//89 92//89 88//89
f 97//32 94//32 92//32
f 110//93 113//93 109//93
f 67//94 99//94 100//94
f 70//95 101//95 99//95
f 104//96 69//96 100//96
f 109//97 108//97 105//97
f 104//98 107//98 103//98
f 102//99 105//99 101//99
f 101//100 108//100 104//100
f 112//101 115//101 111//101
f 114//102 117//102 113//102
f 112//103 107//103 108//103
f 110//104 105//104 106//104
f 109//100 116//100 112//100
f 117//105 115//105 116//105
f 116//106 113//106 117//106
f 122//107 120//107 118//107
f 118//108 81//108 79//108
f 81//109 121//109 82//109
f 82//110 119//110 80//110
f 123//111 124//111 122//111
f 120//112 125//112 121//112
f 125//113 119//113 121//113
f 123//114 118//114 119//114
f 2//1 4//1 6//1
f 62//115 2//115 5//115
f 7//116 2//116 38//116
f 62//117 69//117 38//117
f 61//118 24//118 23//118
f 6//119 4//119 60//119
f 6//120 66//120 59//120
f 61//121 65//121 5//121
f 1//8 5//8 6//8
f 37//9 38//9 40//9
f 10//10 9//10 11//10
f 70//122 60//122 37//122
f 4//123 8//123 37//123
f 8//12 12//12 11//12
f 4//124 10//124 12//124
f 10//125 4//125 14//125
f 2//126 7//126 11//126
f 14//127 18//127 20//127
f 10//128 16//128 15//128
f 4//129 2//129 13//129
f 9//130 15//130 13//130
f 17//131 47//131 48//131
f 13//21 17//21 18//21
f 13//132 15//132 19//132
f 15//133 16//133 20//133
f 23//134 24//134 28//134
f 1//135 22//135 24//135
f 59//136 23//136 21//136
f 1//137 3//137 21//137
f 28//28 26//28 33//28
f 23//138 27//138 25//138
f 24//139 22//139 26//139
f 21//140 25//140 26//140
f 29//32 31//32 32//32
f 25//33 29//33 30//33
f 28//34 32//34 31//34
f 27//35 31//35 29//35
f 33//36 35//36 36//36
f 28//34 34//34 36//34
f 30//33 35//33 33//33
f 32//32 36//32 35//32
f 110//141 43//141 45//141
f 37//38 8//38 7//38
f 70//142 37//142 39//142
f 69//143 103//143 40//143
f 42//144 44//144 43//144
f 40//145 103//145 107//145
f 102//146 39//146 41//146
f 39//44 40//44 42//44
f 44//147 111//147 115//147
f 107//148 111//148 44//148
f 41//149 43//149 110//149
f 43//44 44//44 46//44
f 49//150 53//150 51//150
f 19//151 49//151 47//151
f 19//152 20//152 50//152
f 20//153 18//153 48//153
f 52//154 51//154 53//154
f 49//155 50//155 54//155
f 48//156 52//156 54//156
f 47//157 51//157 52//157
f 64//59 58//59 56//59
f 63//158 56//158 62//158
f 62//159 56//159 100//159
f 67//160 100//160 56//160
f 85//161 86//161 61//161
f 64//5 66//5 60//5
f 59//120 66//120 64//120
f 61//162 55//162 63//162
f 55//66 57//66 64//66
f 99//67 101//67 104//67
f 72//68 74//68 73//68
f 58//163 60//163 99//163
f 70//164 99//164 60//164
f 73//70 74//70 68//70
f 74//165 72//165 58//165
f 72//166 78//166 76//166
f 56//167 71//167 73//167
f 82//168 80//168 76//168
f 77//169 78//169 72//169
f 58//170 76//170 75//170
f 75//171 77//171 71//171
f 119//172 118//172 79//172
f 80//79 79//79 75//79
f 75//173 79//173 81//173
f 77//174 81//174 82//174
f 85//175 89//175 90//175
f 86//176 84//176 55//176
f 83//177 85//177 59//177
f 55//178 84//178 83//178
f 90//28 96//28 95//28
f 87//179 89//179 85//179
f 86//180 90//180 88//180
f 88//181 87//181 83//181
f 91//32 92//32 94//32
f 92//89 91//89 87//89
f 93//90 94//90 90//90
f 91//91 93//91 89//91
f 98//92 97//92 95//92
f 98//90 96//90 90//90
f 95//89 97//89 92//89
f 97//32 98//32 94//32
f 110//182 114//182 113//182
f 67//94 68//94 99//94
f 70//183 102//183 101//183
f 104//184 103//184 69//184
f 109//185 112//185 108//185
f 104//186 108//186 107//186
f 102//187 106//187 105//187
f 101//100 105//100 108//100
f 112//188 116//188 115//188
f 112//189 111//189 107//189
f 110//190 109//190 105//190
f 109//100 113//100 116//100
f 122//191 124//191 120//191
f 118//192 120//192 81//192
f 81//193 120//193 121//193
f 82//194 121//194 119//194
f 123//195 125//195 124//195
f 120//196 124//196 125//196
f 125//197 123//197 119//197
f 123//198 122//198 118//198
