# Blender v2.79 (sub 0) OBJ File: ''
# www.blender.org
mtllib rock1.mtl
o Icosphere_Icosphere.001
v 0.022572 -0.051150 -0.078401
v 0.299241 0.025539 0.192642
v -0.067390 0.021747 0.279657
v -0.274550 0.009680 0.013255
v -0.063430 0.028682 -0.272195
v 0.300055 0.017194 -0.142752
v 0.120807 0.205712 0.226329
v -0.221226 0.135877 0.159575
v -0.215646 0.152302 -0.194256
v 0.120282 0.160886 -0.301215
v 0.433320 0.128483 0.084627
v 0.020097 0.244872 -0.183766
vn -0.0039 -0.9933 -0.1158
vn 0.5012 -0.5450 0.6721
vn -0.2405 -0.4241 0.8730
vn 0.6707 -0.5369 -0.5118
vn -0.8614 -0.5071 0.0289
vn -0.2559 -0.5201 -0.8148
vn 0.9623 0.2152 0.1662
vn 0.1303 0.7297 0.6712
vn -0.7278 0.4550 0.5131
vn -0.7580 0.3804 -0.5298
vn 0.3084 0.3173 -0.8968
vn -0.0470 0.9559 -0.2897
usemtl None
s 1
f 1//1 2//2 3//3
f 2//2 1//1 6//4
f 1//1 3//3 4//5
f 1//1 4//5 5//6
f 1//1 5//6 6//4
f 2//2 6//4 11//7
f 3//3 2//2 7//8
f 4//5 3//3 8//9
f 5//6 4//5 9//10
f 6//4 5//6 10//11
f 2//2 11//7 7//8
f 3//3 7//8 8//9
f 4//5 8//9 9//10
f 5//6 9//10 10//11
f 6//4 10//11 11//7
f 7//8 11//7 12//12
f 8//9 7//8 12//12
f 9//10 8//9 12//12
f 10//11 9//10 12//12
f 11//7 10//11 12//12
