# Blender v2.79 (sub 0) OBJ File: ''
# www.blender.org
mtllib tomato_stem.mtl
o Cylinder
v -0.000000 0.023113 -0.004801
v 0.004157 0.023113 0.002400
v -0.004157 0.023113 0.002400
v 0.004133 0.055347 0.001239
v 0.014016 0.092191 0.024025
v 0.015050 0.089576 0.026928
v 0.006698 0.054589 0.005950
v 0.010942 0.090593 0.026296
v 0.000971 0.054890 0.005783
v 0.016094 0.108037 0.052884
v -0.000000 -0.000550 -0.000000
vn 0.2581 0.6675 -0.6984
vn 0.0854 0.5351 0.8404
vn 0.8021 -0.4772 0.3590
vn -0.9662 0.0619 0.2501
vn -0.8916 -0.0430 0.4507
vn -0.0210 -0.0055 -0.9998
vn 0.0000 -1.0000 0.0000
vn -0.9236 0.1193 0.3644
vn 0.0646 0.3310 -0.9414
vn 0.8613 -0.1577 0.4830
vn 0.8607 -0.2855 0.4214
usemtl None
s 1
f 5//1 10//2 6//3
f 6//3 10//2 8//4
f 8//4 10//2 5//1
f 3//5 1//6 11//7
f 3//5 9//8 4//9 1//6
f 9//8 8//4 5//1 4//9
f 2//10 7//11 9//8 3//5
f 7//11 6//3 8//4 9//8
f 1//6 4//9 7//11 2//10
f 4//9 5//1 6//3 7//11
f 2//10 3//5 11//7
f 1//6 2//10 11//7
