# Blender v2.79 (sub 0) OBJ File: ''
# www.blender.org
mtllib tomato.mtl
o Icosphere
v -0.000000 -0.029871 -0.000000
v 0.028998 -0.012974 0.021068
v -0.011076 -0.012974 0.034089
v -0.035844 -0.012974 -0.000000
v -0.011076 -0.012974 -0.034089
v 0.028998 -0.012974 -0.021068
v 0.011076 0.018404 0.034089
v -0.028998 0.018404 0.021068
v -0.028998 0.018404 -0.021068
v 0.011076 0.018404 -0.034089
v 0.035844 0.018404 -0.000000
v -0.000000 0.024583 -0.000000
v -0.006510 -0.025594 0.020037
v 0.017045 -0.025594 0.012383
v 0.010534 -0.015515 0.032421
v 0.034089 -0.015515 -0.000000
v 0.017045 -0.025594 -0.012383
v -0.021068 -0.025594 -0.000000
v -0.027579 -0.015515 0.020037
v -0.006510 -0.025594 -0.020037
v -0.027579 -0.015515 -0.020037
v 0.010534 -0.015515 -0.032421
v 0.038113 0.002083 0.012384
v 0.038113 0.002083 -0.012384
v -0.000000 0.002083 0.040074
v 0.023555 0.002083 0.032421
v -0.038113 0.002083 0.012384
v -0.023555 0.002083 0.032421
v -0.023555 0.002083 -0.032421
v -0.038113 0.002083 -0.012384
v 0.023555 0.002083 -0.032421
v -0.000000 0.002083 -0.040074
v 0.027579 0.020812 0.020037
v -0.010534 0.020812 0.032421
v -0.034089 0.020812 -0.000000
v -0.010534 0.020812 -0.032421
v 0.027579 0.020812 -0.020037
v 0.006510 0.028213 0.020037
v 0.021068 0.028213 -0.000000
v -0.017045 0.028213 0.012383
v -0.017045 0.028213 -0.012383
v 0.006510 0.028213 -0.020037
vn 0.0000 -1.0000 0.0000
vn 0.3586 -0.8964 0.2605
vn -0.1370 -0.8964 0.4216
vn 0.6957 -0.5103 0.5055
vn 0.8073 -0.5900 0.0000
vn -0.4433 -0.8964 0.0000
vn -0.1370 -0.8964 -0.4216
vn 0.3586 -0.8964 -0.2605
vn 0.9509 -0.0102 0.3092
vn -0.2657 -0.5103 0.8179
vn 0.2495 -0.5900 0.7678
vn -0.0002 -0.0101 0.9999
vn -0.8600 -0.5103 0.0000
vn -0.6532 -0.5900 0.4745
vn -0.9511 -0.0101 0.3087
vn -0.2657 -0.5103 -0.8179
vn -0.6532 -0.5900 -0.4745
vn -0.5875 -0.0102 -0.8091
vn 0.6957 -0.5103 -0.5055
vn 0.2495 -0.5900 -0.7678
vn 0.5879 -0.0101 -0.8088
vn 0.5879 -0.0101 0.8088
vn -0.5875 -0.0102 0.8091
vn -0.9511 -0.0101 -0.3087
vn -0.0002 -0.0101 -0.9999
vn 0.9509 -0.0102 -0.3092
vn 0.2593 0.5440 0.7980
vn 0.6281 0.6303 0.4563
vn 0.0834 0.9628 0.2568
vn -0.6788 0.5440 0.4932
vn -0.2399 0.6303 0.7384
vn -0.2185 0.9628 0.1587
vn -0.6788 0.5440 -0.4932
vn -0.7764 0.6303 0.0000
vn -0.2185 0.9628 -0.1587
vn 0.2593 0.5440 -0.7980
vn -0.2399 0.6303 -0.7384
vn 0.0834 0.9628 -0.2568
vn 0.8391 0.5440 0.0000
vn 0.6281 0.6303 -0.4563
vn 0.2701 0.9628 0.0000
vn 0.0000 1.0000 0.0000
usemtl None
s 1
f 1//1 14//2 13//3
f 2//4 14//2 16//5
f 1//1 13//3 18//6
f 1//1 18//6 20//7
f 1//1 20//7 17//8
f 2//4 16//5 23//9
f 3//10 15//11 25//12
f 4//13 19//14 27//15
f 5//16 21//17 29//18
f 6//19 22//20 31//21
f 2//4 23//9 26//22
f 3//10 25//12 28//23
f 4//13 27//15 30//24
f 5//16 29//18 32//25
f 6//19 31//21 24//26
f 7//27 33//28 38//29
f 8//30 34//31 40//32
f 9//33 35//34 41//35
f 10//36 36//37 42//38
f 11//39 37//40 39//41
f 39//41 42//38 12//42
f 39//41 37//40 42//38
f 37//40 10//36 42//38
f 42//38 41//35 12//42
f 42//38 36//37 41//35
f 36//37 9//33 41//35
f 41//35 40//32 12//42
f 41//35 35//34 40//32
f 35//34 8//30 40//32
f 40//32 38//29 12//42
f 40//32 34//31 38//29
f 34//31 7//27 38//29
f 38//29 39//41 12//42
f 38//29 33//28 39//41
f 33//28 11//39 39//41
f 24//26 37//40 11//39
f 24//26 31//21 37//40
f 31//21 10//36 37//40
f 32//25 36//37 10//36
f 32//25 29//18 36//37
f 29//18 9//33 36//37
f 30//24 35//34 9//33
f 30//24 27//15 35//34
f 27//15 8//30 35//34
f 28//23 34//31 8//30
f 28//23 25//12 34//31
f 25//12 7//27 34//31
f 26//22 33//28 7//27
f 26//22 23//9 33//28
f 23//9 11//39 33//28
f 31//21 32//25 10//36
f 31//21 22//20 32//25
f 22//20 5//16 32//25
f 29//18 30//24 9//33
f 29//18 21//17 30//24
f 21//17 4//13 30//24
f 27//15 28//23 8//30
f 27//15 19//14 28//23
f 19//14 3//10 28//23
f 25//12 26//22 7//27
f 25//12 15//11 26//22
f 15//11 2//4 26//22
f 23//9 24//26 11//39
f 23//9 16//5 24//26
f 16//5 6//19 24//26
f 17//8 22//20 6//19
f 17//8 20//7 22//20
f 20//7 5//16 22//20
f 20//7 21//17 5//16
f 20//7 18//6 21//17
f 18//6 4//13 21//17
f 18//6 19//14 4//13
f 18//6 13//3 19//14
f 13//3 3//10 19//14
f 16//5 17//8 6//19
f 16//5 14//2 17//8
f 14//2 1//1 17//8
f 13//3 15//11 3//10
f 13//3 14//2 15//11
f 14//2 2//4 15//11
