# Blender v2.79 (sub 0) OBJ File: ''
# www.blender.org
mtllib tomato_stake.mtl
o Plane
v -0.011051 0.000000 0.011051
v 0.011051 0.000000 0.011051
v -0.011051 0.000000 -0.011051
v 0.011051 0.000000 -0.011051
v -0.011051 1.821104 0.011051
v 0.011051 1.821104 0.011051
v -0.011051 1.821104 -0.011051
v 0.011051 1.821104 -0.011051
vn 0.0000 1.0000 0.0000
vn 1.0000 0.0000 0.0000
vn -1.0000 0.0000 0.0000
vn 0.0000 0.0000 -1.0000
vn 0.0000 0.0000 1.0000
usemtl None
s off
f 5//1 6//1 8//1 7//1
f 2//2 4//2 8//2 6//2
f 3//3 1//3 5//3 7//3
f 4//4 3//4 7//4 8//4
f 1//5 2//5 6//5 5//5
