# Blender v2.79 (sub 0) OBJ File: ''
# www.blender.org
mtllib uv_body.mtl
o Cube_Cube.001
v -0.499276 -0.314424 0.640975
v -0.499276 0.314424 0.640975
v -0.499276 -0.314424 -0.640975
v -0.499276 0.314424 -0.640975
v 0.499276 -0.314424 0.640975
v 0.499276 0.314424 0.640975
v 0.499276 -0.314424 -0.640975
v 0.499276 0.314424 -0.640975
v -0.478063 -0.314424 0.619763
v -0.481955 0.297104 0.623655
v -0.478063 -0.314424 -0.619763
v -0.481955 0.297104 -0.623655
v 0.478063 -0.314424 0.619763
v 0.481955 0.297104 0.623655
v 0.478063 -0.314424 -0.619763
v 0.481955 0.297104 -0.623655
vn -1.0000 0.0000 0.0000
vn 0.0000 0.0000 -1.0000
vn 1.0000 0.0000 0.0000
vn 0.0000 0.0000 1.0000
vn 0.0000 1.0000 0.0000
vn 1.0000 0.0064 0.0000
vn 0.0000 0.0064 1.0000
vn -1.0000 0.0064 0.0000
vn 0.0000 0.0064 -1.0000
vn 0.0000 -1.0000 0.0000
usemtl None
s off
f 1//1 2//1 4//1 3//1
f 3//2 4//2 8//2 7//2
f 7//3 8//3 6//3 5//3
f 5//4 6//4 2//4 1//4
f 8//5 4//5 2//5 6//5
f 9//6 11//6 12//6 10//6
f 11//7 15//7 16//7 12//7
f 15//8 13//8 14//8 16//8
f 13//9 9//9 10//9 14//9
f 16//10 14//10 10//10 12//10
f 1//10 3//10 11//10 9//10
f 3//10 7//10 15//10 11//10
f 7//10 5//10 13//10 15//10
f 5//10 1//10 9//10 13//10
